<svg xmlns="http://www.w3.org/2000/svg" width="24" height="24" viewBox="0 0 24 24" fill="none" stroke="currentColor" stroke-width="1.8" stroke-linecap="round" stroke-linejoin="round" aria-hidden="true" role="img">
<path d="M7.5 4.5 9.8 7c.5.6.5 1.4-.1 1.9l-1.1 1c1 2.1 2.6 3.7 4.7 4.8l1.1-1.1c.5-.5 1.4-.6 1.9-.1l2.6 2.2c.6.5.7 1.4.2 2l-.9 1.3c-.5.7-1.4 1-2.2.8C10.2 18.4 5.6 13.8 4.2 8c-.2-.8.1-1.7.8-2.2l1.2-.9c.4-.4.9-.5 1.3-.4Z"/><path d="M14.5 5.5c2 .5 3.5 2 4 4"/><path d="M14.7 2.7c3.4.7 6 3.3 6.7 6.7"/>
</svg>
